# xmcd
#
# Track frame offsets:
#	150
#	11029
#	22376
#	37193
#	49698
#	60057
#	69514
#	80509
#	90491
#	104028
#	117322
#	128544
#	141256
#	149533
#	168010
#	179722
#	191037
#	202764
#	214111
#	225363
#	237725
#	250194
#	264474
#	277461
#	288065
#	299087
#	310842
#
# Disc length: 4293 seconds
#
# Revision: 1
# Processed by: cddbd v1.5.2PL0 Copyright (c) Steve Scherf et al.
# Submitted via: audiograbber 1.83.01
#
DISCID=9f10c31b
DTITLE=Various Artist - Wigan Forever
DYEAR=1900
DGENRE=Soul
TTITLE0=G. Davis and R. Tyler - Hold On, Help Is On The Way
TTITLE1=Maurice Williams - Being Without You
TTITLE2=Don Thomas - Come On Train
TTITLE3=The Montclairs - Hung Up On Your Love
TTITLE4=Linda Jones - You Hit Me Like TNT
TTITLE5=Lydia Marcelle - It's Not Like You
TTITLE6=Don Varner - Tear Stained Face
TTITLE7=Gene Chandler - Mr. Big Shot
TTITLE8=Sidney Barnes - I Hurt On The Other Side
TTITLE9=Gladys Knight - Stop And Get A Hold Of Yourself
TTITLE10=Gerri Taylor - Empty Arms And Bitter Tears
TTITLE11=Sam Dees - Lonely For You Baby
TTITLE12=Mill Evans - I've Got To Have Your Love
TTITLE13=Skull Snaps - My Hang Up Is You
TTITLE14=Sam Fletcher - I'd Think It Over
TTITLE15=Billy Joe Young - I've Got You On My Mind Again
TTITLE16=Dee Clark - That's My Girl
TTITLE17=Wade Flemons - That Other Place
TTITLE18=Willie Tee - Please Don't Go
TTITLE19=Johnny Dynamite - The Night The Angels Cried
TTITLE20=Ted Ford - You're Gonna Need Me
TTITLE21=Little Johnny Blair - Momma's Gone
TTITLE22=Eddie Wilson - Toast To The Lady
TTITLE23=Sidney Barnes - You'll Always Be In Style
TTITLE24=Barrett Strong - Make Up Your Mind
TTITLE25=Joe Murphy - It's A Weakness
TTITLE26=The Fabulettes - Screamin' And Shoutin'
EXTD=
EXTT0=
EXTT1=
EXTT2=
EXTT3=
EXTT4=
EXTT5=
EXTT6=
EXTT7=
EXTT8=
EXTT9=
EXTT10=
EXTT11=
EXTT12=
EXTT13=
EXTT14=
EXTT15=
EXTT16=
EXTT17=
EXTT18=
EXTT19=
EXTT20=
EXTT21=
EXTT22=
EXTT23=
EXTT24=
EXTT25=
EXTT26=
PLAYORDER=
